<svg width="72" height="72" viewBox="0 0 72 72" fill="none" xmlns="http://www.w3.org/2000/svg">
  <path d="M22.9199 34.5C22.0915 34.5 21.4199 35.1716 21.4199 36C21.4199 36.8284 22.0915 37.5 22.9199 37.5V36V34.5ZM50.1403 37.0607C50.7261 36.4749 50.7261 35.5251 50.1403 34.9393L40.5943 25.3934C40.0086 24.8076 39.0588 24.8076 38.473 25.3934C37.8872 25.9792 37.8872 26.9289 38.473 27.5147L46.9583 36L38.473 44.4853C37.8872 45.0711 37.8872 46.0208 38.473 46.6066C39.0588 47.1924 40.0086 47.1924 40.5943 46.6066L50.1403 37.0607ZM22.9199 36V37.5H49.0796V36V34.5H22.9199V36Z" fill="white" />
</svg>