<svg width="72" height="72" viewBox="0 0 72 72" fill="none" xmlns="http://www.w3.org/2000/svg">
  <path d="M48 34.5C48.8284 34.5 49.5 35.1716 49.5 36C49.5 36.8284 48.8284 37.5 48 37.5V36V34.5ZM22.9393 37.0607C22.3536 36.4749 22.3536 35.5251 22.9393 34.9393L32.4853 25.3934C33.0711 24.8076 34.0208 24.8076 34.6066 25.3934C35.1924 25.9792 35.1924 26.9289 34.6066 27.5147L26.1213 36L34.6066 44.4853C35.1924 45.0711 35.1924 46.0208 34.6066 46.6066C34.0208 47.1924 33.0711 47.1924 32.4853 46.6066L22.9393 37.0607ZM48 36V37.5H24V36V34.5H48V36Z" fill="white" />
</svg>
