<svg width="30" height="23" viewBox="0 0 30 23" fill="none" xmlns="http://www.w3.org/2000/svg">
<path d="M1.5 9.5459C0.671573 9.5459 0 10.2175 0 11.0459C0 11.8743 0.671573 12.5459 1.5 12.5459V11.0459V9.5459ZM28.7204 12.1066C29.3062 11.5208 29.3062 10.571 28.7204 9.98524L19.1744 0.439297C18.5886 -0.14649 17.6389 -0.14649 17.0531 0.439297C16.4673 1.02508 16.4673 1.97483 17.0531 2.56062L25.5384 11.0459L17.0531 19.5312C16.4673 20.117 16.4673 21.0667 17.0531 21.6525C17.6389 22.2383 18.5886 22.2383 19.1744 21.6525L28.7204 12.1066ZM1.5 11.0459V12.5459H27.6597V11.0459V9.5459H1.5V11.0459Z" fill="white"/>
</svg>
