<svg width="20" height="20" viewBox="0 0 20 20" fill="none" xmlns="http://www.w3.org/2000/svg">
<g clip-path="url(#clip0_3037_1270)">
<path d="M4.76345 20C3.78513 20.0001 2.80712 19.6277 2.06236 18.883C0.572983 17.3936 0.572944 14.9702 2.06236 13.4807L12.151 3.39207C13.1212 2.42184 14.6999 2.42184 15.67 3.39207C16.6402 4.3623 16.6402 5.94094 15.67 6.91109L7.33005 15.2511C7.10123 15.4799 6.73017 15.4799 6.50134 15.2511C6.27251 15.0222 6.27251 14.6512 6.50134 14.4223L14.8413 6.08238C15.0899 5.83375 15.2269 5.5032 15.2269 5.1516C15.2269 4.8 15.0899 4.46945 14.8413 4.22082C14.5927 3.97219 14.2621 3.83523 13.9105 3.83523C13.5589 3.83523 13.2284 3.97215 12.9797 4.22078L2.89107 14.3095C1.85865 15.3419 1.85865 17.0218 2.89107 18.0543C3.92349 19.0866 5.60341 19.0867 6.63587 18.0543L16.7245 7.96562C18.2761 6.41398 18.2761 3.88926 16.7245 2.33762C15.9728 1.58598 14.9735 1.17199 13.9105 1.17199C12.8475 1.17199 11.8481 1.58598 11.0965 2.33762L2.75654 10.6775C2.52771 10.9064 2.15666 10.9064 1.92783 10.6775C1.699 10.4487 1.699 10.0777 1.92783 9.84883L10.2678 1.50887C11.2408 0.535859 12.5345 0 13.9105 0C15.2865 0 16.5802 0.535859 17.5532 1.50887C19.5618 3.51746 19.5618 6.78566 17.5532 8.7943L7.46458 18.883C6.71994 19.6276 5.74154 19.9999 4.76345 20Z" fill="white"/>
</g>
<defs>
<clipPath id="clip0_3037_1270">
<rect width="20" height="20" fill="white"/>
</clipPath>
</defs>
</svg>
