<svg width="12" height="9" viewBox="0 0 12 9" fill="none" xmlns="http://www.w3.org/2000/svg">
<path d="M10.9924 1.87793L8.29492 4.49993L10.9911 7.12005C11.0059 6.93837 10.9995 1.96358 10.9924 1.87793Z" fill="#82BE3C"/>
<path d="M10.0198 1H1.97704C1.71541 0.999981 1.47467 1.10055 1.29883 1.26498C3.13172 3.04657 4.09046 3.97845 5.76766 5.60872C5.89491 5.73289 6.10147 5.73301 6.22873 5.60924C7.91658 3.96861 9.02278 2.89335 10.6965 1.26651C10.5195 1.09973 10.28 1 10.0198 1Z" fill="#82BE3C"/>
<path d="M1.00791 1.87793C1.00061 1.96577 0.994043 6.93953 1.00908 7.12118L3.71031 4.50468L1.00791 1.87793Z" fill="#82BE3C"/>
<path d="M7.83338 4.94922L6.69083 6.05976C6.31017 6.43123 5.69123 6.43283 5.30847 6.05934L4.17141 4.9541L1.30273 7.73281C1.47858 7.89753 1.71604 8.00012 1.9785 8.00012H10.0213C10.2839 8.00012 10.5216 7.89738 10.6975 7.73243L7.83338 4.94922Z" fill="#82BE3C"/>
</svg>
