<svg width="16" height="16" viewBox="0 0 16 16" fill="none" xmlns="http://www.w3.org/2000/svg">
<path d="M4.99494 6.16486C5.68464 7.9159 8.10195 10.3131 9.94339 10.9626C10.1793 11.0383 10.4315 11.0471 10.6721 10.988C10.9126 10.9289 11.1321 10.8042 11.3061 10.6278L11.4299 10.504C11.5458 10.3781 11.6856 10.2767 11.8412 10.2057C11.9968 10.1347 12.1651 10.0956 12.336 10.0906C12.507 10.0856 12.6772 10.1149 12.8367 10.1767C12.9962 10.2384 13.1417 10.3315 13.2647 10.4504L15.6083 12.794C15.8588 13.0451 15.9994 13.3852 15.9994 13.7399C15.9994 14.0945 15.8588 14.4346 15.6083 14.6857L15.3639 14.9301C14.7609 15.5373 13.9625 15.9114 13.11 15.9861C12.2576 16.0609 11.4062 15.8315 10.7067 15.3386C6.79325 12.6082 3.39292 9.20785 0.662529 5.29436C0.170271 4.59531 -0.0596505 3.74504 0.0132262 2.89318C0.086103 2.04132 0.457108 1.24246 1.06095 0.637187L1.30536 0.392778C1.42974 0.268261 1.57744 0.169481 1.74002 0.102085C1.9026 0.0346896 2.07687 0 2.25286 0C2.42886 0 2.60313 0.0346896 2.76571 0.102085C2.92829 0.169481 3.07599 0.268261 3.20037 0.392778L5.47371 2.67951C5.59823 2.80389 5.69701 2.95159 5.7644 3.11417C5.8318 3.27675 5.86649 3.45102 5.86649 3.62702C5.86649 3.80301 5.8318 3.97728 5.7644 4.13986C5.69701 4.30244 5.59823 4.45014 5.47371 4.57452L5.29961 4.74862C5.11837 4.93061 4.99328 5.16088 4.93926 5.41199C4.88524 5.66309 4.90456 5.92443 4.99494 6.16486Z" fill="#82BE3C"/>
</svg>
