<svg width="188" height="45" viewBox="0 0 188 45" fill="none" xmlns="http://www.w3.org/2000/svg">
<path fill-rule="evenodd" clip-rule="evenodd" d="M0.727631 1.36131C0.727631 1.36131 31.6866 -2.88737 39.8055 3.62707C55.3847 16.1279 16.9254 30.5792 9.55907 33.3123C-9.20914 40.2764 227.531 44.0579 211.658 44.5611L188.364 4.79604C179.194 7.27285 -13.6315 41.4396 10.5306 32.9501C29.887 26.1493 37.4804 6.23433 28.442 3.55199C19.4035 0.869638 0.727631 1.36131 0.727631 1.36131Z" fill="url(#paint0_linear_578_20052)"/>
<path d="M0 1.84836C0.196334 2.05264 0.511418 2.04755 0.703537 1.83832C0.896194 1.6287 0.892494 1.29345 0.696526 1.08974L0 1.84836Z" fill="#FEFEFE"/>
<defs>
<linearGradient id="paint0_linear_578_20052" x1="6.38921" y1="1.41062" x2="34.7254" y2="97.9526" gradientUnits="userSpaceOnUse">
<stop stop-color="#CFCFCE"/>
<stop offset="1" stop-color="#6E6E67"/>
</linearGradient>
</defs>
</svg>
