<svg width="80" height="80" viewBox="0 0 80 80" fill="none" xmlns="http://www.w3.org/2000/svg">
<path fill-rule="evenodd" clip-rule="evenodd" d="M40 80C45.2529 80 50.4543 78.9654 55.3073 76.9552C60.1604 74.945 64.5699 71.9986 68.2843 68.2843C71.9986 64.5699 74.945 60.1604 76.9552 55.3073C78.9654 50.4543 80 45.2529 80 40C80 34.7471 78.9654 29.5457 76.9552 24.6927C74.945 19.8396 71.9986 15.4301 68.2843 11.7157C64.5699 8.00138 60.1604 5.05501 55.3073 3.04482C50.4543 1.03463 45.2529 -7.82739e-08 40 0C29.3913 1.58081e-07 19.2172 4.21427 11.7157 11.7157C4.21427 19.2172 0 29.3913 0 40C0 50.6087 4.21427 60.7828 11.7157 68.2843C19.2172 75.7857 29.3913 80 40 80ZM34.5911 22.1778L59.6756 36.1156C60.3681 36.5006 60.9451 37.0637 61.3468 37.7467C61.7485 38.4297 61.9603 39.2076 61.9603 40C61.9603 40.7924 61.7485 41.5703 61.3468 42.2533C60.9451 42.9363 60.3681 43.4994 59.6756 43.8844L34.5911 57.8222C33.7789 58.2737 32.8628 58.5051 31.9336 58.4935C31.0044 58.482 30.0944 58.2278 29.2936 57.7563C28.4929 57.2847 27.8293 56.6121 27.3685 55.8052C26.9077 54.9982 26.6658 54.0848 26.6667 53.1556V26.8444C26.6658 25.9152 26.9077 25.0018 27.3685 24.1948C27.8293 23.3879 28.4929 22.7153 29.2936 22.2437C30.0944 21.7722 31.0044 21.518 31.9336 21.5065C32.8628 21.4949 33.7789 21.7263 34.5911 22.1778Z" fill="white"/>
</svg>
