<svg width="24" height="24" viewBox="0 0 24 24" fill="none" xmlns="http://www.w3.org/2000/svg">
<path d="M19.6027 16.264L12.5752 9.34747C12.4219 9.19578 12.2149 9.11069 11.9992 9.11069C11.7835 9.11069 11.5765 9.19578 11.4232 9.34747L4.39569 16.2625C4.24141 16.4141 4.03375 16.499 3.81744 16.499C3.60113 16.499 3.39347 16.4141 3.23919 16.2625C3.16322 16.1884 3.10284 16.0999 3.06161 16.0021C3.02039 15.9043 2.99915 15.7993 2.99915 15.6932C2.99915 15.5871 3.02039 15.4821 3.06161 15.3843C3.10284 15.2866 3.16322 15.198 3.23919 15.124L10.2652 8.20897C10.728 7.75458 11.3506 7.5 11.9992 7.5C12.6478 7.5 13.2704 7.75458 13.7332 8.20897L20.7592 15.124C20.8354 15.1981 20.896 15.2867 20.9373 15.3846C20.9787 15.4825 21 15.5877 21 15.694C21 15.8003 20.9787 15.9055 20.9373 16.0034C20.896 16.1013 20.8354 16.1899 20.7592 16.264C20.6049 16.4156 20.3972 16.5005 20.1809 16.5005C19.9646 16.5005 19.757 16.4156 19.6027 16.264Z" fill="white"/>
</svg>
