<svg width="16" height="16" viewBox="0 0 16 16" fill="none" xmlns="http://www.w3.org/2000/svg">
<path d="M8.00033 8.50065C10.1174 8.50065 11.8337 6.78441 11.8337 4.66732C11.8337 2.55023 10.1174 0.833984 8.00033 0.833984C5.88323 0.833984 4.16699 2.55023 4.16699 4.66732C4.16699 6.78441 5.88323 8.50065 8.00033 8.50065Z" fill="#82BE3C"/>
<path fill-rule="evenodd" clip-rule="evenodd" d="M14.1663 14.0007C14.1663 14.6447 13.6443 15.1673 12.9997 15.1673H2.99967C2.35501 15.1673 1.83301 14.6447 1.83301 14.0007C1.83301 11.1473 4.14634 8.83398 6.99967 8.83398H8.99967C11.853 8.83398 14.1663 11.1473 14.1663 14.0007ZM13.6803 14.4867C13.6717 14.49 13.6663 14.494 13.6663 14.5007L13.6803 14.4867Z" fill="#82BE3C"/>
</svg>
