<svg width="16" height="16" viewBox="0 0 16 16" fill="none" xmlns="http://www.w3.org/2000/svg">
<path d="M15.9873 3.70215L11.6719 8.00059L15.9852 12.2959C16.0088 11.9981 15.9985 3.84255 15.9873 3.70215Z" fill="#82BE3C"/>
<path d="M14.4319 2.26172H1.56544C1.14691 2.26169 0.761782 2.42656 0.480469 2.69613C3.41266 5.61682 4.94641 7.14451 7.62955 9.81714C7.83311 10.0207 8.16355 10.0209 8.36714 9.81798C11.0673 7.12838 12.837 5.36563 15.5144 2.69863C15.2313 2.42522 14.8482 2.26172 14.4319 2.26172Z" fill="#82BE3C"/>
<path d="M0.0126571 3.70215C0.000969566 3.84615 -0.00953045 12 0.0145321 12.2978L4.33585 8.00838L0.0126571 3.70215Z" fill="#82BE3C"/>
<path d="M10.9328 8.73828L9.10503 10.5589C8.49606 11.1678 7.5059 11.1705 6.89358 10.5582L5.07455 8.74628L0.485352 13.3016C0.766665 13.5717 1.14654 13.7399 1.56642 13.7399H14.4329C14.8531 13.7399 15.2333 13.5714 15.5147 13.301L10.9328 8.73828Z" fill="#82BE3C"/>
</svg>
