<svg width="15" height="15" viewBox="0 0 15 15" fill="none" xmlns="http://www.w3.org/2000/svg">
<path fill-rule="evenodd" clip-rule="evenodd" d="M7.73872 3.68716C5.77633 3.58425 4.24493 4.94595 3.90724 7.07724C3.62759 8.84221 4.1234 10.9928 4.5475 11.1011C4.72738 11.147 5.16025 10.8159 5.47518 10.5189C5.53439 10.4631 5.62392 10.4537 5.69335 10.4962C6.18428 10.7964 6.74011 11.022 7.35288 11.0541C9.36752 11.1597 11.1529 9.58299 11.2584 7.56819C11.3639 5.55338 9.75336 3.79281 7.73872 3.68716ZM4.45254 13.9191C4.37656 13.8653 4.27188 13.8799 4.2082 13.9479C3.3571 14.8556 1.17891 15.4924 1.07914 14.2534C1.07914 13.2827 0.861107 12.4647 0.621051 11.564C0.327045 10.461 0 9.23396 0 7.45064C0 3.19811 3.48761 0 7.62274 0C11.7579 0 15 3.35425 15 7.49194C15 11.6296 11.6547 14.9013 7.66187 14.9013C6.24532 14.9013 5.55791 14.7018 4.45254 13.9191Z" fill="white"/>
</svg>
