<svg width="16" height="16" viewBox="0 0 16 16" fill="none" xmlns="http://www.w3.org/2000/svg">
<g clip-path="url(#clip0_1877_1412)">
<path d="M9.88087 2.6875L1.07744 11.4916C1.03315 11.536 1.00117 11.5921 0.985939 11.6524L0.0101637 15.5689C-0.0190245 15.6868 0.0156207 15.8122 0.101663 15.8982C0.166765 15.9633 0.255472 15.9994 0.346209 15.9994C0.374002 15.9994 0.402428 15.9959 0.430094 15.989L4.34665 15.0131C4.40769 14.9978 4.46315 14.966 4.50744 14.9217L13.3116 6.11826L9.88087 2.6875Z" fill="#82BE3C"/>
<path d="M15.4933 1.48559L14.5134 0.50563C13.8584 -0.149329 12.7169 -0.148695 12.0627 0.50563L10.8623 1.70603L14.2929 5.13666L15.4933 3.93626C15.8205 3.60923 16.0007 3.17394 16.0007 2.71099C16.0007 2.24804 15.8205 1.81275 15.4933 1.48559Z" fill="#82BE3C"/>
</g>
<defs>
<clipPath id="clip0_1877_1412">
<rect width="16" height="16" fill="white"/>
</clipPath>
</defs>
</svg>
