<svg width="89" height="57" viewBox="0 0 89 57" fill="none" xmlns="http://www.w3.org/2000/svg">
<path d="M69.561 56.9164C74.5874 56.8997 79.4031 54.8956 82.9573 51.3414C86.5115 47.7873 88.5156 42.9715 88.5322 37.9452C88.5322 33.3605 87.5647 29.092 85.1174 25.576C83.3847 23.0654 80.3999 21.592 77.5542 20.0111C77.5226 15.0153 77.5858 13.7885 81.5319 7.21818C84.1056 2.93069 79.1478 -1.90696 74.9236 0.767975C65.9565 6.47198 59.8478 11.5752 55.9144 17.5891C51.9811 23.5903 50.5898 30.3061 50.5898 37.9452C50.5982 42.9741 52.5996 47.7946 56.1556 51.3506C59.7116 54.9066 64.5321 56.908 69.561 56.9164ZM18.9712 56.9164C23.9975 56.8997 28.8133 54.8956 32.3674 51.3414C35.9216 47.7873 37.9257 42.9715 37.9424 37.9452C37.9424 33.3605 36.9749 29.092 34.5276 25.576C32.7949 23.0654 29.8101 21.592 26.9644 20.0111C26.9328 15.0153 26.9897 13.7885 30.942 7.21818C33.5158 2.93069 28.558 -1.90696 24.3337 0.767975C15.3667 6.47198 9.25794 11.5752 5.32458 17.5891C1.39122 23.5903 0 30.3061 0 37.9452C0.00836182 42.9741 2.00979 47.7946 5.56577 51.3506C9.12175 54.9066 13.9423 56.908 18.9712 56.9164Z" fill="#82BE3C"/>
</svg>
