<svg width="22" height="14" viewBox="0 0 22 14" fill="none" xmlns="http://www.w3.org/2000/svg">
<path d="M13.1996 5.62424V1.55877C13.1996 0.642494 13.0335 0.4588 12.1217 0.4588L9.53675 0.400502C8.73157 0.400502 8.32898 0.400502 8.16619 0.661194C8.00339 0.921886 8.18379 1.27938 8.54348 1.99215C8.74367 2.38814 8.85147 2.67523 8.85147 3.11962V6.04553C8.85147 6.9695 8.85147 7.43259 8.49948 7.57009C8.14749 7.70648 7.856 7.39629 7.27082 6.77591C5.84086 5.25356 5.09508 3.35281 4.6056 1.28048C4.5044 0.851488 4.4538 0.636995 4.30201 0.518198C4.15021 0.399402 3.93352 0.400502 3.50233 0.400502H1.0824C0.552218 0.400502 0.287126 0.400502 0.121031 0.587496C-0.0439638 0.775591 -0.0120647 1.01538 0.0517334 1.49387C0.632516 5.81344 4.4307 12.8961 11.4474 13.5715C12.6904 13.6903 13.1996 13.3548 13.1996 11.9931C13.1996 11.2209 13.1831 9.97351 14.1544 9.80962C14.6637 9.72382 15.0058 9.90532 15.5745 10.3816C16.56 11.2088 17.077 12.2185 17.4367 12.9852C17.6754 13.4934 17.8525 13.6001 18.4135 13.6001H20.6948C21.8476 13.6001 22.1611 13.3185 21.6474 12.2361C21.0668 11.0223 20.2449 9.9395 19.2319 9.05394C18.5323 8.45226 18.1836 8.15197 18.1649 7.92978C18.144 7.70868 18.4003 7.39519 18.9129 6.76821C19.9028 5.55605 21.2514 3.6542 21.8806 1.63576C22.193 0.634795 21.8993 0.400502 20.8862 0.400502H18.837C17.8437 0.400502 17.8448 0.366403 17.6105 1.49277C17.2299 3.31981 15.9848 5.07646 14.8144 6.27213C14.2589 6.83971 13.9234 7.1818 13.5769 7.0421C13.2304 6.90241 13.1996 6.47782 13.1996 5.62424Z" fill="white"/>
</svg>
