<svg width="466" height="260" viewBox="0 0 466 260" fill="none" xmlns="http://www.w3.org/2000/svg">
<path d="M99.06 230V195.55H13V173.58L74.75 42.8H101.01L39.26 173.58H99.06V120.93H122.46V173.58H141.96V195.55H122.46V230H99.06Z" fill="#151618"/>
<path d="M410.06 230V195.55H324V173.58L385.75 42.8H412.01L350.26 173.58H410.06V120.93H433.46V173.58H452.96V195.55H433.46V230H410.06Z" fill="#151618"/>
<path fill-rule="evenodd" clip-rule="evenodd" d="M214.157 144.523C214.157 144.523 176.007 204.596 180.824 228.117C190.19 273.057 255.549 207.615 268 195.023C299.741 163.09 329.61 122.784 345.938 90.2538L326.409 55.7903C307.863 107.933 271.05 159.147 231.107 200.855C199.161 234.236 188.18 225.897 191.655 204.342C195.174 182.865 214.157 144.523 214.157 144.523Z" fill="#151618"/>
<path fill-rule="evenodd" clip-rule="evenodd" d="M291.973 106.677C291.973 106.677 329.653 46.3085 324.652 22.8253C314.935 -22.0398 250.089 43.91 237.737 56.5994C206.246 88.7791 176.693 129.317 160.619 161.974L180.417 196.284C198.555 143.998 234.967 92.4982 274.584 50.4797C306.268 16.8495 317.314 25.1026 314.007 46.6842C310.656 68.1885 291.973 106.677 291.973 106.677Z" fill="#151618"/>
<path fill-rule="evenodd" clip-rule="evenodd" d="M113.691 106.48L165.296 113.41L379.926 43.8929L192.911 127.164L188.646 161.39L170.841 116.929L379.926 43.8929L201.441 127.164L246.329 182.928L379.926 43.8929L113.691 106.48ZM214.236 147.742L198.669 128.337L197.07 128.87L192.058 159.364L214.236 147.742Z" fill="#82BE3C"/>
</svg>
