<svg width="343" height="92" viewBox="0 0 343 92" fill="none" xmlns="http://www.w3.org/2000/svg">
<path d="M106.018 1.86505H100.854V11.8367H99.1323V1.86505H93.9678V0.30596H106.018V1.86505ZM123.038 11.8367H121.349V1.80009L111.508 11.8367H108.909V0.30596H110.631V10.4401L120.57 0.30596H123.038V11.8367ZM140.123 11.8367H138.402V1.86505H128.495V11.8367H126.774V0.30596H140.123V11.8367ZM158.053 6.08759C158.053 7.93901 157.988 9.14081 157.793 9.75795C157.468 10.8298 156.494 11.5119 154.837 11.8043C154.188 11.9342 152.888 11.9991 150.972 11.9991C149.023 11.9991 147.724 11.9342 147.074 11.8043C145.418 11.5119 144.411 10.8298 144.086 9.75795C143.924 9.17329 143.826 7.93901 143.826 6.08759C143.826 4.20369 143.924 2.96941 144.086 2.38475C144.411 1.31287 145.418 0.630771 147.042 0.30596C147.756 0.176036 149.056 0.143555 150.972 0.143555C152.921 0.143555 154.22 0.176036 154.837 0.30596C156.494 0.59829 157.468 1.31287 157.793 2.38475C157.988 2.93693 158.053 4.17121 158.053 6.08759ZM156.364 6.08759C156.364 3.94384 156.137 2.70956 155.682 2.31979C155.162 1.89753 153.603 1.67016 150.94 1.67016C149.088 1.67016 147.951 1.70265 147.529 1.80009C146.587 1.93001 146.002 2.48219 145.743 3.42414C145.613 3.87888 145.548 4.75587 145.548 6.08759C145.548 7.38683 145.613 8.26382 145.775 8.71855C146.035 9.62802 146.62 10.1802 147.562 10.3426C147.984 10.4076 149.088 10.4401 150.94 10.4401C152.823 10.4401 153.96 10.4076 154.35 10.3426C155.292 10.2127 155.877 9.66051 156.169 8.71855C156.299 8.26382 156.364 7.38683 156.364 6.08759ZM171.955 1.86505H163.087V11.8367H161.366V0.30596H171.955V1.86505ZM187.513 3.97632C187.513 5.11316 187.253 5.99015 186.701 6.60729C186.117 7.28939 185.272 7.6142 184.168 7.6142H176.535V11.8367H174.846V0.30596H184.233C186.409 0.30596 187.513 1.50776 187.513 3.97632ZM185.792 3.97632C185.792 2.57963 185.24 1.86505 184.135 1.86505H176.535V6.05511H184.168C185.24 6.05511 185.792 5.37301 185.792 3.97632ZM205.183 11.8367H203.234L201.87 9.27073H193.62L192.288 11.8367H190.339L196.381 0.30596H199.076L205.183 11.8367ZM201.123 7.74412L197.972 1.67016H197.55L194.399 7.74412H201.123ZM226.393 5.8927C226.393 7.45179 226.166 8.55615 225.646 9.23825C225.061 10.0178 224.022 10.4401 222.56 10.4401H218.078V11.8367H216.356V10.4401H211.874C210.38 10.4401 209.341 10.0503 208.756 9.23825C208.269 8.55615 208.009 7.45179 208.009 5.8927C208.009 4.13873 208.366 2.96941 209.048 2.35227C209.6 1.83257 210.542 1.6052 211.874 1.6052H216.356V0.30596H218.078V1.6052H222.56C223.924 1.6052 224.866 1.83257 225.386 2.31979C226.068 2.93693 226.393 4.13873 226.393 5.8927ZM224.704 5.8927C224.704 4.98323 224.574 4.30113 224.347 3.91136C224.022 3.42414 223.405 3.16429 222.56 3.16429H218.078V8.84848H222.56C223.405 8.84848 224.022 8.55615 224.347 7.97149C224.574 7.54924 224.704 6.86713 224.704 5.8927ZM216.356 8.84848V3.16429H211.874C210.997 3.16429 210.412 3.39166 210.12 3.91136C209.86 4.30113 209.73 4.95075 209.73 5.8927C209.73 6.83465 209.86 7.51676 210.12 7.97149C210.412 8.55615 211.03 8.84848 211.874 8.84848H216.356ZM244.16 11.8367H242.439V1.80009L232.629 11.8367H230.031V0.30596H231.72V10.4401L241.659 0.30596H244.16V11.8367ZM260.985 11.8367H259.296V7.64668H251.176C250.721 7.64668 250.299 7.7766 249.942 7.97149C249.487 8.23134 249.292 8.55615 249.292 8.9784V11.8367H247.571V8.9784C247.571 8.03645 248.058 7.32187 249.065 6.89962C248.448 6.67225 248.058 6.24999 247.831 5.7303C247.668 5.34052 247.571 4.75587 247.571 3.97632C247.571 2.93693 247.798 2.09242 248.318 1.41032C248.837 0.663252 249.617 0.30596 250.624 0.30596H260.985V11.8367ZM259.296 6.08759V1.86505H251.339C250.591 1.86505 250.072 2.02746 249.747 2.35227C249.455 2.67708 249.292 3.22926 249.292 3.97632C249.292 4.72338 249.455 5.24308 249.779 5.60037C250.072 5.92518 250.624 6.08759 251.339 6.08759H259.296Z" fill="#FEFEFE" stroke="#FEFEFE" stroke-width="0.288"/>
<path d="M196.706 48.6698H188.553V38.828H172.832V48.6698H164.614V22.2627H172.832V31.9745H188.553V22.2627H196.706V48.6698Z" fill="#FEFEFE"/>
<path d="M146.425 29.1162H138.499C136.226 29.1162 134.342 29.7009 132.88 30.9351C131.418 32.1369 130.671 33.6635 130.671 35.5474C130.671 37.4313 131.418 38.958 132.88 40.1273C134.342 41.2641 136.226 41.8488 138.499 41.8488H146.425C148.698 41.8488 150.582 41.2641 152.044 40.1273C153.505 38.958 154.22 37.4313 154.22 35.5474C154.22 33.6635 153.505 32.1369 152.011 30.9351C150.55 29.7009 148.666 29.1162 146.425 29.1162ZM162.373 35.2226C162.373 39.0879 160.846 42.3035 157.858 44.837C154.837 47.403 151.037 48.6698 146.425 48.6698H138.499C133.887 48.6698 130.054 47.403 127.033 44.837C124.013 42.3035 122.519 39.0879 122.519 35.2226C122.519 31.3574 124.013 28.2392 127.001 25.8356C129.989 23.4645 133.822 22.2627 138.499 22.2627H146.425C151.102 22.2627 154.935 23.4645 157.89 25.8356C160.879 28.2392 162.373 31.3574 162.373 35.2226Z" fill="#FEFEFE"/>
<path d="M127.293 48.6698H114.853L102.153 39.8349V48.6698H93.9678V22.2627H102.153V31.2924L114.853 22.2627H127.131L108.324 35.6774L127.293 48.6698Z" fill="#FEFEFE"/>
<path d="M307.076 32.1369C307.076 35.1252 305.809 37.5613 303.243 39.4127C300.774 41.1667 297.721 42.0437 294.083 42.0437H280.279V42.4334V48.6698H272.126V42.4334V35.1902V29.1162V22.2627H277.518H280.279H285.833H294.116C297.754 22.2627 300.774 23.1397 303.243 24.8937C305.809 26.7451 307.076 29.1812 307.076 32.1369ZM280.279 35.1902H294.895C296.032 35.1902 296.974 34.8978 297.721 34.3456C298.501 33.7935 298.89 33.0464 298.89 32.1045C298.89 31.195 298.501 30.4479 297.721 29.9282C296.974 29.376 296.032 29.1162 294.895 29.1162H285.833H280.279V35.1902Z" fill="#FEFEFE"/>
<path d="M326.564 48.6698H320.75H310.908H304.282L306.036 41.8488H309.122V29.9282C309.122 25.7057 312.565 22.2627 316.787 22.2627H330.494C334.717 22.2627 338.16 25.7057 338.16 29.9282V41.8488H341.278L343 48.6698H336.406H326.564ZM317.307 41.8488H318.606H320.75H326.564H328.708H329.975V29.1162H317.307V41.8488Z" fill="#FEFEFE"/>
<path d="M252.606 29.1162H244.648C242.374 29.1162 240.523 29.7009 239.028 30.9351C237.567 32.1369 236.852 33.6635 236.852 35.5474C236.852 37.4313 237.567 38.958 239.028 40.1273C240.523 41.2641 242.374 41.8488 244.648 41.8488H252.606C254.879 41.8488 256.731 41.2641 258.192 40.1273C259.654 38.958 260.401 37.4313 260.401 35.5474C260.401 33.6635 259.654 32.1369 258.192 30.9351C256.698 29.7009 254.847 29.1162 252.606 29.1162ZM268.521 35.2226C268.521 39.0879 267.027 42.3035 264.006 44.837C260.986 47.403 257.185 48.6698 252.606 48.6698H244.648C240.035 48.6698 236.203 47.403 233.214 44.837C230.194 42.3035 228.667 39.0879 228.667 35.2226C228.667 31.3574 230.161 28.2392 233.149 25.8356C236.17 23.4645 239.97 22.2627 244.648 22.2627H252.606C257.25 22.2627 261.083 23.4645 264.071 25.8356C267.027 28.2392 268.521 31.3574 268.521 35.2226Z" fill="#FEFEFE"/>
<path d="M233.442 48.6698H221.002L208.334 39.8349V48.6698H200.116V22.2627H208.334V31.2924L221.002 22.2627H233.312L214.473 35.6774L233.442 48.6698Z" fill="#FEFEFE"/>
<path fill-rule="evenodd" clip-rule="evenodd" d="M24.4258 32.8842C24.4258 32.8842 3.41053 44.0576 0.974446 51.6907C-3.73531 66.3072 26.0498 58.057 31.734 56.4654C46.2206 52.3728 61.5516 45.5843 71.6532 38.8282V25.6084C57.6864 37.6914 38.555 46.4937 20.0733 52.048C5.26195 56.4979 3.47549 52.2429 8.02284 46.5912C12.5702 40.907 24.4258 32.8842 24.4258 32.8842Z" fill="#FEFEFE"/>
<path fill-rule="evenodd" clip-rule="evenodd" d="M6.75586 17.6184L21.145 19.5672L81.17 0.143555L28.9079 23.4325L27.6737 32.9819L22.7041 20.5417L81.17 0.143555L31.2791 23.4325L43.8167 38.9909L81.17 0.143555L6.75586 17.6184ZM34.852 29.1816L30.4995 23.7573L30.0448 23.8872L28.6481 32.3972L34.852 29.1816Z" fill="#8BC400"/>
<path d="M7.08087 82.524V90.3195H5.29441V84.0182H1.78646V90.3195H0V82.524H7.08087ZM12.7651 90.4819C11.953 90.4819 11.206 90.287 10.5563 89.9297C9.90672 89.6049 9.41951 89.1177 9.02974 88.5005C8.67244 87.8834 8.47756 87.2013 8.47756 86.4218C8.47756 85.6747 8.67244 84.9926 9.02974 84.3754C9.41951 83.7583 9.90672 83.2711 10.5563 82.9138C11.206 82.589 11.953 82.3941 12.7651 82.3941C13.5771 82.3941 14.2917 82.589 14.9413 82.9138C15.5909 83.2711 16.0781 83.7583 16.4679 84.3754C16.8252 84.9926 17.0201 85.6747 17.0201 86.4218C17.0201 87.2013 16.8252 87.8834 16.4679 88.5005C16.0781 89.1177 15.5909 89.6049 14.9413 89.9297C14.2917 90.287 13.5771 90.4819 12.7651 90.4819ZM12.7651 88.9228C13.2198 88.9228 13.642 88.8254 13.9993 88.598C14.3566 88.4031 14.649 88.1108 14.8763 87.721C15.0712 87.3637 15.2011 86.909 15.2011 86.4218C15.2011 85.967 15.0712 85.5123 14.8763 85.155C14.649 84.7652 14.3566 84.4729 13.9993 84.2455C13.642 84.0506 13.2198 83.9532 12.7651 83.9532C12.2778 83.9532 11.8881 84.0506 11.4983 84.2455C11.141 84.4729 10.8487 84.7652 10.6213 85.155C10.4264 85.5123 10.2965 85.967 10.2965 86.4218C10.2965 86.909 10.4264 87.3637 10.6213 87.721C10.8487 88.1108 11.141 88.4031 11.4983 88.598C11.8881 88.8254 12.2778 88.9228 12.7651 88.9228ZM25.1403 82.524V90.3195H23.3539V84.0182H20.6904L20.6255 85.6422C20.593 86.7466 20.4956 87.6236 20.3656 88.3381C20.2032 89.0202 19.9759 89.5399 19.651 89.8972C19.3262 90.287 18.8715 90.4494 18.2544 90.4494C18.027 90.4494 17.7347 90.4169 17.3774 90.3195L17.4748 88.8254C17.5723 88.8254 17.7022 88.8578 17.7996 88.8578C18.2544 88.8578 18.5467 88.598 18.7091 88.0783C18.8715 87.5911 19.0014 86.779 19.0339 85.7072L19.1313 82.524H25.1403ZM27.0892 82.524H28.8757V87.6236L32.611 82.524H34.3V90.3195H32.5135V85.2524L28.7782 90.3195H27.0892V82.524ZM41.7382 84.0182H38.0028L38.0353 90.3195H36.2164V82.524H41.7382V84.0182ZM46.2206 82.524C46.9027 82.524 47.4873 82.654 48.007 82.8813C48.5267 83.1087 48.9165 83.4335 49.1763 83.8558C49.4687 84.278 49.5986 84.7977 49.5986 85.3824C49.5986 85.9345 49.4687 86.4542 49.1763 86.8765C48.9165 87.2987 48.5267 87.6236 48.007 87.8509C47.4873 88.0783 46.9027 88.1757 46.2206 88.1757H44.629V90.3195H42.8425V82.524H46.2206ZM46.1231 86.7141C46.6428 86.7141 47.0651 86.5842 47.3574 86.3568C47.6172 86.1294 47.7796 85.8046 47.7796 85.3824C47.7796 84.9276 47.6172 84.6028 47.3574 84.343C47.0651 84.1156 46.6428 84.0182 46.1231 84.0182H44.629V86.7141H46.1231ZM55.6725 88.663H52.0671L51.385 90.3195H49.5336L53.0091 82.524H54.7631L58.271 90.3195H56.3871L55.6725 88.663ZM55.1204 87.2987L53.8861 84.3105L52.6518 87.2987H55.1204ZM68.4376 86.4218C68.4376 87.4612 68.0803 88.2732 67.3657 88.8578C66.6836 89.4425 65.6767 89.7673 64.345 89.8323V90.6768H62.6885V89.8323C61.3567 89.7348 60.3498 89.41 59.6677 88.8254C58.9531 88.2407 58.5958 87.4287 58.5958 86.4218C58.5958 85.3824 58.9531 84.5703 59.6677 84.0182C60.3498 83.4335 61.3567 83.0762 62.6885 83.0112V82.1992H64.345V82.9788C65.6767 83.0762 66.6836 83.401 67.3657 83.9857C68.0803 84.6028 68.4376 85.3824 68.4376 86.4218ZM64.345 88.4031C65.1245 88.3381 65.7092 88.1433 66.099 87.8184C66.4887 87.4936 66.6836 87.0064 66.6836 86.3893C66.6836 85.22 65.9041 84.5703 64.345 84.4079V88.4031ZM60.3498 86.4218C60.3498 87.5911 61.1294 88.2407 62.6885 88.4031V84.4079C61.9089 84.5054 61.2918 84.7003 60.9345 85.0251C60.5447 85.3499 60.3498 85.8046 60.3498 86.4218ZM69.7693 82.524H71.5558V87.6236L75.2911 82.524H76.9801V90.3195H75.1937V85.2524L71.4908 90.3195H69.7693V82.524ZM85.1329 82.524V90.3195H83.3464V88.2732H81.7224L80.3257 90.3195H78.4418L80.0658 87.9808C79.5136 87.7535 79.1239 87.4287 78.8315 87.0064C78.5717 86.5842 78.4093 86.0645 78.4093 85.4473C78.4093 84.8302 78.5392 84.3105 78.8315 83.8882C79.0914 83.466 79.4812 83.1087 80.0009 82.8813C80.4881 82.654 81.1052 82.524 81.7873 82.524H85.1329ZM81.8198 84.0182C81.3001 84.0182 80.9103 84.1156 80.6505 84.3754C80.3906 84.6028 80.2282 84.9601 80.2282 85.4148C80.2282 85.8696 80.3581 86.2269 80.618 86.4542C80.8778 86.7141 81.2676 86.844 81.7873 86.844H83.3464V84.0182H81.8198ZM89.6802 87.3312L91.2393 85.155H92.7984L91.2718 87.3312L92.7984 89.5075H91.2393L89.6802 87.3312ZM92.1813 87.3312L93.7728 85.155H95.3319L93.8053 87.3312L95.3319 89.5075H93.7728L92.1813 87.3312ZM103.68 82.524V90.3195H101.893V84.0182H98.3527V90.3195H96.5662V82.524H103.68ZM109.331 90.4819C108.519 90.4819 107.805 90.287 107.155 89.9297C106.505 89.6049 105.986 89.1177 105.628 88.5005C105.239 87.8834 105.076 87.2013 105.076 86.4218C105.076 85.6747 105.239 84.9926 105.628 84.3754C105.986 83.7583 106.505 83.2711 107.155 82.9138C107.805 82.589 108.519 82.3941 109.331 82.3941C110.143 82.3941 110.89 82.589 111.507 82.9138C112.157 83.2711 112.677 83.7583 113.034 84.3754C113.424 84.9926 113.619 85.6747 113.619 86.4218C113.619 87.2013 113.424 87.8834 113.034 88.5005C112.677 89.1177 112.157 89.6049 111.507 89.9297C110.89 90.287 110.143 90.4819 109.331 90.4819ZM109.331 88.9228C109.786 88.9228 110.208 88.8254 110.598 88.598C110.955 88.4031 111.248 88.1108 111.475 87.721C111.67 87.3637 111.767 86.909 111.767 86.4218C111.767 85.967 111.67 85.5123 111.475 85.155C111.248 84.7652 110.955 84.4729 110.598 84.2455C110.208 84.0506 109.786 83.9532 109.331 83.9532C108.877 83.9532 108.454 84.0506 108.097 84.2455C107.707 84.4729 107.415 84.7652 107.22 85.155C106.993 85.5123 106.895 85.967 106.895 86.4218C106.895 86.909 106.993 87.3637 107.22 87.721C107.415 88.1108 107.707 88.4031 108.097 88.598C108.454 88.8254 108.877 88.9228 109.331 88.9228ZM122.811 88.8578V91.9435H121.154V90.3195H115.633V91.9435H113.976V88.8578H114.301C114.756 88.8578 115.08 88.5005 115.275 87.8509C115.47 87.1688 115.6 86.2269 115.633 84.9926L115.73 82.524H121.739V88.8578H122.811ZM117.224 85.155C117.192 86.0645 117.127 86.844 116.997 87.4936C116.867 88.1108 116.704 88.5655 116.445 88.8578H119.953V84.0182H117.257L117.224 85.155ZM130.217 87.2013H128.95V90.3195H127.163V82.524H128.95V85.6747H130.249L132.295 82.524H134.212L131.646 86.2918L134.277 90.3195H132.23L130.217 87.2013ZM142.267 82.524V90.3195H140.481V84.0182H137.817L137.752 85.6422C137.72 86.7466 137.622 87.6236 137.492 88.3381C137.33 89.0202 137.103 89.5399 136.778 89.8972C136.453 90.287 135.998 90.4494 135.381 90.4494C135.154 90.4494 134.861 90.4169 134.504 90.3195L134.602 88.8254C134.699 88.8254 134.829 88.8578 134.926 88.8578C135.381 88.8578 135.673 88.598 135.836 88.0783C135.998 87.5911 136.128 86.779 136.161 85.7072L136.258 82.524H142.267ZM151.102 82.3941C151.881 82.3941 152.596 82.589 153.213 82.9138C153.83 83.2711 154.318 83.7583 154.675 84.3754C155.032 84.9926 155.227 85.6747 155.227 86.4218C155.227 87.2013 155.032 87.8834 154.675 88.5005C154.318 89.1177 153.83 89.6049 153.213 89.9297C152.596 90.287 151.881 90.4819 151.102 90.4819C150.387 90.4819 149.77 90.3195 149.186 90.0596C148.601 89.7673 148.114 89.3775 147.756 88.8903C147.367 88.3706 147.139 87.8184 147.042 87.1688H146.002V90.3195H144.216V82.524H146.002V85.6097H147.042C147.172 84.9926 147.432 84.4079 147.789 83.9207C148.179 83.4335 148.633 83.0762 149.218 82.8164C149.803 82.524 150.42 82.3941 151.102 82.3941ZM151.102 88.9228C151.524 88.9228 151.914 88.8254 152.271 88.6305C152.629 88.4031 152.888 88.1108 153.083 87.7535C153.278 87.3637 153.408 86.9415 153.408 86.4218C153.408 85.9345 153.278 85.5123 153.083 85.1225C152.888 84.7652 152.629 84.4729 152.271 84.2455C151.914 84.0506 151.524 83.9532 151.102 83.9532C150.68 83.9532 150.29 84.0506 149.933 84.2455C149.575 84.4729 149.315 84.7652 149.088 85.1225C148.893 85.5123 148.796 85.9345 148.796 86.4218C148.796 86.9415 148.893 87.3637 149.088 87.7535C149.315 88.1108 149.575 88.4031 149.933 88.6305C150.29 88.8254 150.68 88.9228 151.102 88.9228ZM162.86 82.524V90.3195H161.074V87.5261C160.391 87.786 159.774 87.8834 159.19 87.8834C158.15 87.8834 157.338 87.656 156.786 87.1363C156.234 86.6491 155.942 85.9345 155.942 84.9926V82.524H157.728V84.7652C157.728 85.3174 157.89 85.7072 158.15 85.9995C158.443 86.2594 158.865 86.3893 159.417 86.3893C160.002 86.3893 160.554 86.2918 161.074 86.032V82.524H162.86ZM164.094 89.5075L165.621 87.3312L164.094 85.155H165.653L167.245 87.3312L165.653 89.5075H164.094ZM166.628 89.5075L168.154 87.3312L166.628 85.155H168.187L169.746 87.3312L168.187 89.5075H166.628ZM173.904 86.5192H177.054V87.8834H173.904V86.5192ZM185.434 90.4819C184.655 90.4819 183.908 90.287 183.258 89.9297C182.609 89.6049 182.089 89.1177 181.732 88.5005C181.374 87.8834 181.179 87.2013 181.179 86.4218C181.179 85.6747 181.374 84.9926 181.732 84.3754C182.089 83.7583 182.609 83.2711 183.258 82.9138C183.908 82.589 184.655 82.3941 185.434 82.3941C186.246 82.3941 186.993 82.589 187.643 82.9138C188.293 83.2711 188.78 83.7583 189.17 84.3754C189.527 84.9926 189.722 85.6747 189.722 86.4218C189.722 87.2013 189.527 87.8834 189.17 88.5005C188.78 89.1177 188.293 89.6049 187.643 89.9297C186.993 90.287 186.246 90.4819 185.434 90.4819ZM185.434 88.9228C185.922 88.9228 186.311 88.8254 186.701 88.598C187.058 88.4031 187.351 88.1108 187.578 87.721C187.773 87.3637 187.903 86.909 187.903 86.4218C187.903 85.967 187.773 85.5123 187.578 85.155C187.351 84.7652 187.058 84.4729 186.701 84.2455C186.311 84.0506 185.922 83.9532 185.434 83.9532C184.98 83.9532 184.557 84.0506 184.2 84.2455C183.843 84.4729 183.55 84.7652 183.323 85.155C183.128 85.5123 182.998 85.967 182.998 86.4218C182.998 86.909 183.128 87.3637 183.323 87.721C183.55 88.1108 183.843 88.4031 184.2 88.598C184.557 88.8254 184.98 88.9228 185.434 88.9228ZM196.965 84.0182H194.464V90.3195H192.678V84.0182H190.209V82.524H196.965V84.0182ZM208.334 90.3195V85.6747L206.027 89.5075H205.248L202.942 85.7721V90.3195H201.253V82.524H202.747L205.67 87.3962L208.528 82.524H210.023V90.3195H208.334ZM217.266 88.663H213.628L212.946 90.3195H211.094L214.57 82.524H216.356L219.832 90.3195H217.948L217.266 88.663ZM216.681 87.2987L215.447 84.3105L214.213 87.2987H216.681ZM223.892 87.2013H222.658V90.3195H220.839V82.524H222.658V85.6747H223.924L225.971 82.524H227.887L225.354 86.2918L227.952 90.3195H225.906L223.892 87.2013ZM234.838 88.8903V90.3195H228.829V82.524H234.708V83.9857H230.616V85.6747H234.221V87.0714H230.616V88.8903H234.838ZM242.276 84.0182H239.775V90.3195H237.989V84.0182H235.52V82.524H242.276V84.0182ZM248.285 88.663H244.68L243.998 90.3195H242.146L245.622 82.524H247.408L250.884 90.3195H249L248.285 88.663ZM247.733 87.2987L246.499 84.3105L245.265 87.2987H247.733ZM263.097 88.8578V91.9435H261.44V90.3195H255.951V91.9435H254.262V88.8578H254.587C255.041 88.8578 255.399 88.5005 255.593 87.8509C255.788 87.1688 255.886 86.2269 255.951 84.9926L256.016 82.524H262.025V88.8578H263.097ZM257.542 85.155C257.477 86.0645 257.412 86.844 257.283 87.4936C257.185 88.1108 256.99 88.5655 256.763 88.8578H260.238V84.0182H257.575L257.542 85.155ZM268.034 90.4819C267.222 90.4819 266.507 90.287 265.858 89.9297C265.208 89.6049 264.688 89.1177 264.331 88.5005C263.974 87.8834 263.779 87.2013 263.779 86.4218C263.779 85.6747 263.974 84.9926 264.331 84.3754C264.688 83.7583 265.208 83.2711 265.858 82.9138C266.507 82.589 267.222 82.3941 268.034 82.3941C268.846 82.3941 269.593 82.589 270.242 82.9138C270.86 83.2711 271.379 83.7583 271.769 84.3754C272.126 84.9926 272.321 85.6747 272.321 86.4218C272.321 87.2013 272.126 87.8834 271.769 88.5005C271.379 89.1177 270.86 89.6049 270.242 89.9297C269.593 90.287 268.846 90.4819 268.034 90.4819ZM268.034 88.9228C268.521 88.9228 268.911 88.8254 269.301 88.598C269.658 88.4031 269.95 88.1108 270.177 87.721C270.372 87.3637 270.47 86.909 270.47 86.4218C270.47 85.967 270.372 85.5123 270.177 85.155C269.95 84.7652 269.658 84.4729 269.301 84.2455C268.911 84.0506 268.521 83.9532 268.034 83.9532C267.579 83.9532 267.157 84.0506 266.799 84.2455C266.41 84.4729 266.15 84.7652 265.922 85.155C265.695 85.5123 265.598 85.967 265.598 86.4218C265.598 86.909 265.695 87.3637 265.922 87.721C266.15 88.1108 266.41 88.4031 266.799 88.598C267.157 88.8254 267.579 88.9228 268.034 88.9228ZM284.891 88.8578V91.9435H283.235V90.3195H277.713V91.9435H276.057V88.8578H276.381C276.836 88.8578 277.161 88.5005 277.356 87.8509C277.551 87.1688 277.681 86.2269 277.713 84.9926L277.811 82.524H283.82V88.8578H284.891ZM279.305 85.155C279.272 86.0645 279.207 86.844 279.077 87.4936C278.98 88.1108 278.785 88.5655 278.525 88.8578H282.033V84.0182H279.337L279.305 85.155ZM289.829 90.4819C289.017 90.4819 288.302 90.287 287.652 89.9297C287.003 89.6049 286.483 89.1177 286.126 88.5005C285.736 87.8834 285.574 87.2013 285.574 86.4218C285.574 85.6747 285.736 84.9926 286.126 84.3754C286.483 83.7583 287.003 83.2711 287.652 82.9138C288.302 82.589 289.017 82.3941 289.829 82.3941C290.641 82.3941 291.355 82.589 292.005 82.9138C292.654 83.2711 293.174 83.7583 293.531 84.3754C293.921 84.9926 294.084 85.6747 294.084 86.4218C294.084 87.2013 293.921 87.8834 293.531 88.5005C293.174 89.1177 292.654 89.6049 292.005 89.9297C291.355 90.287 290.641 90.4819 289.829 90.4819ZM289.829 88.9228C290.283 88.9228 290.706 88.8254 291.095 88.598C291.453 88.4031 291.745 88.1108 291.94 87.721C292.167 87.3637 292.265 86.909 292.265 86.4218C292.265 85.967 292.167 85.5123 291.94 85.155C291.745 84.7652 291.453 84.4729 291.095 84.2455C290.706 84.0506 290.283 83.9532 289.829 83.9532C289.374 83.9532 288.952 84.0506 288.594 84.2455C288.204 84.4729 287.912 84.7652 287.717 85.155C287.49 85.5123 287.392 85.967 287.392 86.4218C287.392 86.909 287.49 87.3637 287.717 87.721C287.912 88.1108 288.204 88.4031 288.594 88.598C288.952 88.8254 289.374 88.9228 289.829 88.9228ZM299.183 90.4819C298.371 90.4819 297.656 90.287 297.007 89.9622C296.39 89.6049 295.87 89.1177 295.513 88.5005C295.155 87.9159 294.961 87.2013 294.961 86.4218C294.961 85.6747 295.155 84.9601 295.513 84.343C295.87 83.7583 296.39 83.2711 297.007 82.9138C297.656 82.589 298.371 82.3941 299.183 82.3941C299.865 82.3941 300.482 82.524 301.034 82.7514C301.554 83.0112 302.041 83.3361 302.399 83.7908L301.229 84.8627C300.71 84.2455 300.06 83.9532 299.281 83.9532C298.793 83.9532 298.371 84.0506 297.981 84.2455C297.591 84.4729 297.299 84.7652 297.104 85.155C296.877 85.5123 296.779 85.967 296.779 86.4218C296.779 86.909 296.877 87.3637 297.104 87.721C297.299 88.1108 297.591 88.4031 297.981 88.598C298.371 88.8254 298.793 88.9228 299.281 88.9228C300.06 88.9228 300.71 88.6305 301.229 88.0133L302.399 89.0852C302.041 89.5399 301.554 89.8647 301.002 90.1246C300.482 90.352 299.865 90.4819 299.183 90.4819ZM309.447 84.0182H306.979V90.3195H305.192V84.0182H302.691V82.524H309.447V84.0182ZM315.489 88.663H311.851L311.169 90.3195H309.317L312.793 82.524H314.579L318.055 90.3195H316.171L315.489 88.663ZM314.904 87.2987L313.67 84.3105L312.435 87.2987H314.904ZM324.518 86.2594C324.973 86.4218 325.363 86.6491 325.59 86.9739C325.85 87.2663 325.98 87.6885 325.98 88.1433C325.98 88.8254 325.72 89.3775 325.2 89.7673C324.681 90.1571 323.934 90.3195 322.959 90.3195H319.094V82.524H322.732C323.641 82.524 324.356 82.7189 324.843 83.0762C325.363 83.401 325.623 83.9207 325.623 84.5703C325.623 84.9276 325.525 85.2849 325.33 85.5772C325.135 85.8696 324.843 86.0969 324.518 86.2594ZM320.913 85.7721H322.569C322.959 85.7721 323.284 85.6747 323.479 85.5448C323.674 85.3824 323.771 85.1225 323.771 84.8302C323.771 84.5054 323.674 84.278 323.479 84.1156C323.252 83.9532 322.959 83.8882 322.569 83.8882H320.913V85.7721ZM322.894 88.9878C323.739 88.9878 324.161 88.663 324.161 87.9808C324.161 87.3637 323.739 87.0389 322.894 87.0389H320.913V88.9878H322.894ZM330.43 87.2013H329.163V90.3195H327.377V82.524H329.163V85.6747H330.462L332.509 82.524H334.425L331.859 86.2918L334.49 90.3195H332.444L330.43 87.2013ZM335.335 82.524H337.153V87.6236L340.856 82.524H342.545V90.3195H340.759V85.2524L337.056 90.3195H335.335V82.524Z" fill="#8BC400"/>
</svg>
