<svg width="214" height="40" viewBox="0 0 214 40" fill="none" xmlns="http://www.w3.org/2000/svg">
<path d="M70.0001 2.62499H66.8619V8.66447H65.8159V2.62499H62.6777V1.65789H70.0001V2.62499ZM80.3619 8.66447H79.3159V2.58552L73.3554 8.66447H71.7764V1.65789H72.8225V7.81578L78.8422 1.65789H80.3619V8.66447ZM90.7435 8.66447H89.6975V2.62499H83.658V8.66447H82.6317V1.65789H90.7435V8.66447ZM101.638 5.17105C101.638 6.31578 101.579 7.04605 101.48 7.40131C101.283 8.07236 100.671 8.48684 99.6843 8.66447C99.2896 8.74341 98.5001 8.76315 97.3159 8.76315C96.1317 8.76315 95.3422 8.74341 94.9475 8.66447C93.9409 8.48684 93.3488 8.07236 93.1514 7.42105C93.033 7.06578 92.9935 6.31578 92.9935 5.17105C92.9935 4.04605 93.033 3.29605 93.1514 2.94078C93.3488 2.26973 93.9409 1.85526 94.9475 1.67763C95.3619 1.59868 96.1514 1.5592 97.3159 1.5592C98.5001 1.5592 99.2896 1.59868 99.6843 1.67763C100.671 1.85526 101.283 2.26973 101.48 2.92105C101.579 3.27631 101.638 4.02631 101.638 5.17105ZM100.592 5.17105C100.592 3.88815 100.454 3.11841 100.178 2.90131C99.8817 2.64473 98.9146 2.50657 97.3159 2.50657C96.1909 2.50657 95.5001 2.52631 95.2238 2.56578C94.6712 2.66447 94.2962 2.99999 94.1383 3.57236C94.0593 3.82894 94.0396 4.38157 94.0396 5.17105C94.0396 5.96052 94.079 6.49341 94.158 6.78947C94.3159 7.3421 94.6909 7.67763 95.2435 7.77631C95.5001 7.81578 96.1909 7.83552 97.3159 7.83552C98.4606 7.83552 99.1514 7.81578 99.3685 7.77631C99.9409 7.69736 100.316 7.36184 100.474 6.78947C100.553 6.51315 100.592 5.98026 100.592 5.17105ZM110.066 2.62499H104.678V8.66447H103.632V1.65789H110.066V2.62499ZM119.52 3.90789C119.52 4.59868 119.362 5.13157 119.026 5.50657C118.691 5.92105 118.178 6.11841 117.487 6.11841H112.869V8.66447H111.822V1.65789H117.526C118.869 1.65789 119.52 2.40789 119.52 3.90789ZM118.474 3.90789C118.474 3.03947 118.158 2.62499 117.487 2.62499H112.869V5.17105H117.487C118.158 5.17105 118.474 4.75657 118.474 3.90789ZM130.257 8.66447H129.072L128.263 7.10526H123.25L122.421 8.66447H121.237L124.928 1.65789H126.566L130.257 8.66447ZM127.79 6.17763L125.895 2.50657L125.619 2.48684L123.704 6.17763H127.79ZM143.165 5.07236C143.165 5.99999 143.007 6.67105 142.711 7.08552C142.336 7.57894 141.724 7.83552 140.816 7.83552H138.092V8.66447H137.046V7.83552H134.322C133.415 7.83552 132.803 7.57894 132.447 7.10526C132.132 6.69078 131.994 5.99999 131.994 5.07236C131.994 4.00657 132.191 3.27631 132.605 2.90131C132.941 2.60526 133.513 2.4671 134.322 2.4671H137.046V1.65789H138.092V2.4671H140.816C141.645 2.4671 142.217 2.60526 142.533 2.90131C142.947 3.27631 143.165 3.98684 143.165 5.07236ZM142.119 5.07236C142.119 4.49999 142.04 4.10526 141.901 3.86841C141.704 3.55263 141.349 3.39473 140.816 3.39473H138.092V6.86841H140.816C141.349 6.86841 141.704 6.69078 141.901 6.33552C142.04 6.07894 142.119 5.64473 142.119 5.07236ZM137.046 6.86841V3.39473H134.322C133.809 3.39473 133.454 3.55263 133.257 3.86841C133.099 4.10526 133.04 4.49999 133.04 5.07236C133.04 5.64473 133.099 6.0592 133.257 6.33552C133.454 6.69078 133.809 6.86841 134.322 6.86841H137.046ZM153.941 8.66447H152.895V2.58552L146.934 8.66447H145.355V1.65789H146.401V7.81578L152.421 1.65789H153.941V8.66447ZM164.184 8.66447H163.138V6.13815H158.204C157.928 6.13815 157.671 6.19736 157.454 6.33552C157.197 6.47368 157.059 6.69078 157.059 6.94736V8.66447H156.013V6.94736C156.013 6.37499 156.329 5.94078 156.941 5.6842C156.566 5.52631 156.309 5.28947 156.171 4.95394C156.072 4.7171 156.013 4.36184 156.013 3.90789C156.013 3.27631 156.171 2.74341 156.467 2.34868C156.803 1.89473 157.276 1.65789 157.888 1.65789H164.184V8.66447ZM163.138 5.19078V2.62499H158.303C157.849 2.62499 157.533 2.72368 157.336 2.92105C157.158 3.11841 157.059 3.4342 157.059 3.90789C157.059 4.36184 157.158 4.67763 157.355 4.87499C157.553 5.0921 157.869 5.19078 158.303 5.19078H163.138Z" fill="white" stroke="white" stroke-width="0.288"/>
<path d="M125.125 31.0658H120.151V25.0658H110.599V31.0658H105.625V15.0198H110.599V20.9014H120.151V15.0198H125.125V31.0658Z" fill="#FEFEFE"/>
<path d="M94.5724 19.1842H89.7369C88.3553 19.1842 87.2303 19.5395 86.3224 20.2698C85.4343 21.0198 85.0001 21.9474 85.0001 23.0921C85.0001 24.2369 85.4343 25.1645 86.3224 25.8553C87.2303 26.5658 88.3553 26.9211 89.7369 26.9211H94.5724C95.954 26.9211 97.079 26.5658 97.9672 25.8553C98.8553 25.1645 99.3093 24.2369 99.3093 23.0921C99.3093 21.9474 98.8553 21.0198 97.9672 20.2698C97.0593 19.5395 95.9343 19.1842 94.5724 19.1842ZM104.243 22.8948C104.243 25.2435 103.336 27.1777 101.5 28.7369C99.6645 30.2764 97.3553 31.0658 94.5724 31.0658H89.7369C86.9343 31.0658 84.6053 30.2764 82.7895 28.7369C80.954 27.1777 80.0264 25.2435 80.0264 22.8948C80.0264 20.5461 80.9343 18.6514 82.7501 17.1908C84.5856 15.7303 86.8948 15.0198 89.7369 15.0198H94.5724C97.3948 15.0198 99.7237 15.7303 101.54 17.1908C103.336 18.6514 104.243 20.5461 104.243 22.8948Z" fill="#FEFEFE"/>
<path d="M82.9277 31.0658H75.3685L67.6712 25.6974V31.0658H62.6777V15.0198H67.6712V20.5066L75.3685 15.0198H82.8488L71.4014 23.1514L82.9277 31.0658Z" fill="#FEFEFE"/>
<path d="M192.191 21.0198C192.191 22.8356 191.402 24.2961 189.842 25.4211C188.342 26.5066 186.507 27.0395 184.277 27.0395H175.889V27.2764V31.0658H170.935V27.2764V22.875V19.1842V15.0198H174.231H175.889H179.264H184.316C186.507 15.0198 188.342 15.5527 189.842 16.6185C191.402 17.7435 192.191 19.204 192.191 21.0198ZM175.889 22.875H184.77C185.461 22.875 186.033 22.6974 186.507 22.3619C186.961 22.0066 187.198 21.5724 187.198 21C187.198 20.4277 186.961 19.9935 186.507 19.6579C186.033 19.3421 185.461 19.1842 184.77 19.1842H179.264H175.889V22.875Z" fill="#FEFEFE"/>
<path d="M204.033 31.0658H200.48H194.5H190.474L191.559 26.9014H193.434V19.6777C193.434 17.0921 195.507 15.0198 198.092 15.0198H206.401C208.967 15.0198 211.059 17.0921 211.059 19.6777V26.9014H212.954L214 31.0658H210.013H204.033ZM198.388 26.9014H199.178H200.48H204.033H205.316H206.105V19.1842H198.388V26.9014Z" fill="#FEFEFE"/>
<path d="M159.072 19.1842H154.237C152.855 19.1842 151.73 19.5395 150.842 20.2698C149.954 21.0198 149.5 21.9474 149.5 23.0921C149.5 24.2369 149.954 25.1645 150.842 25.8553C151.73 26.5658 152.855 26.9211 154.237 26.9211H159.072C160.454 26.9211 161.579 26.5658 162.487 25.8553C163.375 25.1645 163.809 24.2369 163.809 23.0921C163.809 21.9474 163.355 21.0198 162.467 20.2698C161.559 19.5395 160.434 19.1842 159.072 19.1842ZM168.763 22.8948C168.763 25.2435 167.835 27.1777 166 28.7369C164.164 30.2764 161.855 31.0658 159.072 31.0658H154.237C151.434 31.0658 149.125 30.2764 147.289 28.7369C145.454 27.1777 144.546 25.2435 144.546 22.8948C144.546 20.5461 145.454 18.6514 147.27 17.1908C149.085 15.7303 151.414 15.0198 154.237 15.0198H159.072C161.914 15.0198 164.224 15.7303 166.039 17.1908C167.855 18.6514 168.763 20.5461 168.763 22.8948Z" fill="#FEFEFE"/>
<path d="M147.447 31.0658H139.869L132.171 25.6974V31.0658H127.178V15.0198H132.171V20.5066L139.869 15.0198H147.349L135.921 23.1514L147.447 31.0658Z" fill="#FEFEFE"/>
<path fill-rule="evenodd" clip-rule="evenodd" d="M15.8619 21.6908C15.8619 21.6908 1.96712 29.0921 0.32896 34.1447C-2.76972 43.8158 16.9474 38.3486 20.7171 37.2829C30.3092 34.5986 40.454 30.0986 47.1448 25.6184V16.8552C37.8882 24.8684 25.2171 30.7105 12.9803 34.3815C3.1908 37.3223 1.98686 34.5197 5.00659 30.75C8.02633 27 15.8619 21.6908 15.8619 21.6908Z" fill="white"/>
<path fill-rule="evenodd" clip-rule="evenodd" d="M4.1582 11.5855L13.7108 12.8684L53.4411 0L18.8227 15.4145L18.0332 21.75L14.7372 13.5197L53.4411 0L20.4016 15.4145L28.7108 25.7368L53.4411 0L4.1582 11.5855ZM22.77 19.2237L19.8885 15.6316L19.5924 15.7303L18.6648 21.375L22.77 19.2237Z" fill="#8BC400"/>
</svg>
